<svg id="Group_2" data-name="Group 2" xmlns="http://www.w3.org/2000/svg" xmlns:xlink="http://www.w3.org/1999/xlink" width="619" height="167.096" viewBox="0 0 619 167.096">
  <defs>
    <clipPath id="clip-path">
      <path id="Path_17" data-name="Path 17" d="M0,0H619V167.1H0Z" fill="none"/>
    </clipPath>
  </defs>
  <g id="Mask_Group_1" data-name="Mask Group 1" clip-path="url(#clip-path)">
    <path id="Path_1" data-name="Path 1" d="M157.8,15.688a12.432,12.432,0,1,0-16.813,11.619v97.6c0,.762.013,1.531.024,2.3.025,1.607.052,3.268-.042,4.858-.567,9.617-5.744,18.275-12.881,21.544-3.111,1.425-6.321,1.415-9.7,1.4H92.109V73.836q5.461-1.941,10.907-3.883,6.972-2.484,13.959-4.966a4.47,4.47,0,0,0,3.111-4.259V48.38a12.417,12.417,0,1,0-8.9-.225v9.479l-10.416,3.69Q93.6,63.863,86.439,66.4a4.591,4.591,0,0,0-3.226,4.259v84.347H77.085c-1.393,0-3.115.006-5.046.014V70.662A4.648,4.648,0,0,0,68.72,66.4q-6.871-2.439-13.7-4.879-5.474-1.95-10.955-3.9V48.156a12.442,12.442,0,1,0-8.9.222V60.728a4.421,4.421,0,0,0,3.019,4.259q7,2.482,14.026,4.966,5.47,1.935,10.931,3.869v81.247c-9.455.053-20.762.11-26.464.021-6.675-.1-12.593-3.905-16.235-10.432-2.593-4.647-3.751-10.139-3.751-17.809v-99.5A12.421,12.421,0,1,0,7.8,27.217V124.33c-.008,5.015-.017,10.2,1.1,15.259,2.3,10.39,8.471,19.108,16.5,23.321,4.723,2.477,9.582,2.819,14.129,2.819H68.045c2.224,0,5.933.007,10.408.014,6.889.013,15.475.028,23.31.028,8.4,0,15.937-.017,19.572-.075,15.847-.252,28.406-16.007,28.588-35.869.051-5.421.024-10.935,0-16.267-.015-3.213-.032-6.425-.032-9.634V27.259A12.443,12.443,0,0,0,157.8,15.688m-12.431,5.961a5.96,5.96,0,1,1,5.959-5.961,5.966,5.966,0,0,1-5.959,5.961M115.945,42.633a5.961,5.961,0,1,1,5.961-5.961,5.967,5.967,0,0,1-5.961,5.961M39.314,30.712a5.961,5.961,0,1,1-5.959,5.961,5.967,5.967,0,0,1,5.959-5.961M12.431,21.649a5.96,5.96,0,1,1,5.959-5.961,5.966,5.966,0,0,1-5.959,5.961" transform="translate(0 1.325)" fill="#fff"/>
    <path id="Path_2" data-name="Path 2" d="M186.165,46.292q0,13.067-7.649,20.614t-19.7,7.548q-12.258,0-19.907-7.548T131.26,46.292V6.48H142V47q0,8.509,4.71,13.068a16.69,16.69,0,0,0,12.107,4.558,16.376,16.376,0,0,0,11.953-4.558q4.66-4.558,4.66-13.068V6.48h10.738Z" transform="translate(53.402 2.636)" fill="#fff"/>
    <path id="Path_3" data-name="Path 3" d="M219.361,23.278q4.965,5.419,4.963,14.333v31.1H213.689V39.03a11.737,11.737,0,0,0-2.988-8.358,10.259,10.259,0,0,0-7.852-3.191,10.951,10.951,0,0,0-8.154,3.241A11.341,11.341,0,0,0,191.5,39.03V68.712H180.867V18.971h9.927v4.965q5.571-6.078,14.891-6.079,8.711,0,13.676,5.421" transform="translate(73.585 7.265)" fill="#fff"/>
    <path id="Path_4" data-name="Path 4" d="M233.257,2.509a6.75,6.75,0,0,1,2.129,5.015,6.588,6.588,0,0,1-2.129,4.963,7.091,7.091,0,0,1-5.065,2.026,7.215,7.215,0,0,1-5.166-2.026A6.592,6.592,0,0,1,220.9,7.524a6.754,6.754,0,0,1,2.127-5.015A7.121,7.121,0,0,1,228.192.432a7,7,0,0,1,5.065,2.077m.2,73.292H222.824V26.062h10.637Z" transform="translate(89.871 0.176)" fill="#fff"/>
    <path id="Path_5" data-name="Path 5" d="M271.99,63.153v9.015a41.708,41.708,0,0,1-8.814,1.114q-8.61,0-13.472-4.3T244.84,55.961V31.647h-8.1V22.429h8.1V9.361h10.738V22.429H270.37v9.218H255.579v23.4q0,4.761,2.483,6.685t7.344,1.925a62.4,62.4,0,0,0,6.584-.505" transform="translate(96.315 3.808)" fill="#fff"/>
    <path id="Path_6" data-name="Path 6" d="M314.387,47.337H277.313a14.793,14.793,0,0,0,5.368,9.624,16.932,16.932,0,0,0,10.838,3.444q7.8,0,14.486-5.876l5.066,7.294a28.076,28.076,0,0,1-19.856,8q-11.547,0-19.146-7.445a24.839,24.839,0,0,1-7.6-18.487A25.315,25.315,0,0,1,273.919,25.4,24.687,24.687,0,0,1,292.2,17.858a22.412,22.412,0,0,1,16.46,6.481A22.03,22.03,0,0,1,315.2,40.652a29.979,29.979,0,0,1-.81,6.685M282.631,30.165a15.536,15.536,0,0,0-5.117,8.866h27.048a11.66,11.66,0,0,0-3.748-8.866,12.96,12.96,0,0,0-9.015-3.292,13.77,13.77,0,0,0-9.168,3.292" transform="translate(108.413 7.265)" fill="#fff"/>
    <path id="Path_7" data-name="Path 7" d="M359.178,0V75.977H349.25v-7.09q-5.774,8.2-17.424,8.2A22.787,22.787,0,0,1,314.4,69.7q-6.89-7.394-6.889-18.537T314.4,32.57a22.713,22.713,0,0,1,17.424-7.446q10.739,0,16.613,7.192V0ZM344.236,63.263q4.406-4.1,4.406-12.1,0-7.9-4.457-12.106a14.843,14.843,0,0,0-10.534-4.2,14.5,14.5,0,0,0-10.942,4.558,16.173,16.173,0,0,0-4.354,11.649,16.315,16.315,0,0,0,4.354,11.753,14.5,14.5,0,0,0,10.942,4.558,14.993,14.993,0,0,0,10.585-4.1" transform="translate(125.11)" fill="#fff"/>
    <path id="Path_8" data-name="Path 8" d="M187.076,79.505h-22.59v57.236H153.749V79.505h-22.49V69.881h55.817Z" transform="translate(53.402 28.431)" fill="#fff"/>
    <path id="Path_9" data-name="Path 9" d="M217.693,110.737H180.619a14.792,14.792,0,0,0,5.369,9.624,16.931,16.931,0,0,0,10.838,3.444q7.8,0,14.486-5.876l5.066,7.294a28.076,28.076,0,0,1-19.856,8q-11.547,0-19.146-7.445a24.839,24.839,0,0,1-7.6-18.487,25.311,25.311,0,0,1,7.446-18.487,24.683,24.683,0,0,1,18.285-7.548,22.408,22.408,0,0,1,16.46,6.483,22.024,22.024,0,0,1,6.533,16.311,29.983,29.983,0,0,1-.81,6.685M185.937,93.566a15.533,15.533,0,0,0-5.117,8.865h27.048a11.657,11.657,0,0,0-3.748-8.865,12.954,12.954,0,0,0-9.015-3.292,13.763,13.763,0,0,0-9.168,3.292" transform="translate(69.074 33.059)" fill="#fff"/>
    <path id="Path_10" data-name="Path 10" d="M249.465,84.347a23.644,23.644,0,0,1,8.661,8.459l-7.5,5.875q-5.371-7.6-13.372-7.6a14.739,14.739,0,0,0-11.194,4.659,17.269,17.269,0,0,0,0,23.046,14.814,14.814,0,0,0,11.194,4.61q7.9,0,13.372-7.5l7.5,5.772q-7.192,11.549-20.969,11.549a25.6,25.6,0,0,1-18.69-7.546,26.1,26.1,0,0,1,0-36.924,25.686,25.686,0,0,1,18.69-7.5,24.407,24.407,0,0,1,12.309,3.089" transform="translate(85.77 33.059)" fill="#fff"/>
    <path id="Path_11" data-name="Path 11" d="M291.288,93.994q4.965,5.47,4.963,14.284v31.1H285.616V109.8a11.858,11.858,0,0,0-2.939-8.358,10.216,10.216,0,0,0-7.9-3.191,10.951,10.951,0,0,0-8.154,3.241,11.341,11.341,0,0,0-3.192,8.307v29.58H252.794V63.4H263.43V94.5q5.369-5.978,14.385-5.978,8.509,0,13.473,5.471" transform="translate(102.848 25.794)" fill="#fff"/>
    <path id="Path_12" data-name="Path 12" d="M332.688,86.678q4.966,5.419,4.963,14.334v31.1H327.016V102.43a11.731,11.731,0,0,0-2.988-8.357,10.256,10.256,0,0,0-7.852-3.192,10.952,10.952,0,0,0-8.154,3.243,11.337,11.337,0,0,0-3.192,8.306v29.682H294.194V82.371h9.927v4.965q5.571-6.078,14.891-6.079,8.711,0,13.676,5.421" transform="translate(119.691 33.059)" fill="#fff"/>
    <path id="Path_13" data-name="Path 13" d="M346.583,65.91a6.747,6.747,0,0,1,2.129,5.014,6.583,6.583,0,0,1-2.129,4.963,7.092,7.092,0,0,1-5.063,2.027,7.22,7.22,0,0,1-5.167-2.027,6.587,6.587,0,0,1-2.127-4.963,6.752,6.752,0,0,1,2.127-5.014,7.119,7.119,0,0,1,5.167-2.077,6.994,6.994,0,0,1,5.063,2.077m.2,73.291H336.149V89.461h10.637Z" transform="translate(135.977 25.97)" fill="#fff"/>
    <path id="Path_14" data-name="Path 14" d="M390.512,84.347a23.65,23.65,0,0,1,8.659,8.459l-7.5,5.875q-5.37-7.6-13.37-7.6a14.734,14.734,0,0,0-11.194,4.659,17.265,17.265,0,0,0,0,23.046A14.81,14.81,0,0,0,378.3,123.4q7.9,0,13.37-7.5l7.5,5.772q-7.192,11.549-20.969,11.549a25.6,25.6,0,0,1-18.69-7.546,26.1,26.1,0,0,1,0-36.924,25.686,25.686,0,0,1,18.69-7.5,24.416,24.416,0,0,1,12.31,3.089" transform="translate(143.153 33.059)" fill="#fff"/>
    <path id="Path_15" data-name="Path 15" d="M428.831,86.627Q434.4,92,434.4,102.024v30.087h-9.928V126.54q-5.569,6.685-15.9,6.685-7.8,0-12.562-3.952a12.883,12.883,0,0,1-4.762-10.433,12.4,12.4,0,0,1,4.963-10.332q4.965-3.851,13.372-3.851h14.081v-3.241q0-5.166-2.784-7.9t-7.852-2.735q-7.5,0-13.777,7.4l-6.18-6.282q7.5-10.636,20.97-10.636,9.218,0,14.79,5.369m-8.915,35.05a10.788,10.788,0,0,0,3.748-8.409v-.91H410.9q-8.815,0-8.814,6.078a5.607,5.607,0,0,0,2.432,4.862,10.605,10.605,0,0,0,6.28,1.723,13.208,13.208,0,0,0,9.116-3.344" transform="translate(159.176 33.059)" fill="#fff"/>
    <rect id="Rectangle_2" data-name="Rectangle 2" width="10.637" height="75.977" transform="translate(608.363 89.194)" fill="#fff"/>
  </g>
</svg>
